
<svg width="200" height="200" viewBox="0 0 200 200" xmlns="http://www.w3.org/2000/svg">
  <defs>
    <pattern id="arabesque" x="0" y="0" width="100" height="100" patternUnits="userSpaceOnUse">
      <path d="M50 0C25 0 5 25 5 50s20 50 45 50 50-25 50-50S75 0 50 0zm0 10c22.1 0 40 17.9 40 40s-17.9 40-40 40S10 72.1 10 50s17.9-40 40-40z" fill="#ea384c" fill-opacity=".1"/>
      <circle cx="50" cy="50" r="5" fill="#ea384c" fill-opacity=".05"/>
      <path d="M90 50c0-22.1-17.9-40-40-40v5c19.3 0 35 15.7 35 35H90z" fill="#ea384c" fill-opacity=".1"/>
      <path d="M10 50c0 22.1 17.9 40 40 40v-5c-19.3 0-35-15.7-35-35h-5z" fill="#ea384c" fill-opacity=".1"/>
    </pattern>
  </defs>
  <rect width="100%" height="100%" fill="url(#arabesque)"/>
</svg>
