
<svg width="200" height="200" viewBox="0 0 200 200" xmlns="http://www.w3.org/2000/svg">
  <defs>
    <pattern id="arabesque" x="0" y="0" width="100" height="100" patternUnits="userSpaceOnUse">
      <!-- Central circular pattern -->
      <path d="M50 0C25 0 5 25 5 50s20 50 45 50 50-25 50-50S75 0 50 0zm0 10c22.1 0 40 17.9 40 40s-17.9 40-40 40S10 72.1 10 50s17.9-40 40-40z" fill="#ea384c" fill-opacity=".1"/>
      <circle cx="50" cy="50" r="5" fill="#ea384c" fill-opacity=".05"/>
      
      <!-- Decorative arcs -->
      <path d="M90 50c0-22.1-17.9-40-40-40v5c19.3 0 35 15.7 35 35H90z" fill="#ea384c" fill-opacity=".1"/>
      <path d="M10 50c0 22.1 17.9 40 40 40v-5c-19.3 0-35-15.7-35-35h-5z" fill="#ea384c" fill-opacity=".1"/>
      
      <!-- Arabesque flourishes -->
      <path d="M50 15c-19.33 0-35 15.67-35 35s15.67 35 35 35 35-15.67 35-35S69.33 15 50 15zm0 5c16.57 0 30 13.43 30 30S66.57 80 50 80 20 66.57 20 50s13.43-30 30-30z" fill="#ea384c" fill-opacity=".08"/>
      
      <!-- Decorative corners -->
      <path d="M5 5L15 15M5 95L15 85M95 5L85 15M95 95L85 85" stroke="#ea384c" stroke-width="1" stroke-opacity=".07"/>
      
      <!-- Spiral elements -->
      <path d="M30 30c0-5.52 4.48-10 10-10s10 4.48 10 10-4.48 10-10 10-10-4.48-10-10zm2 0c0 4.42 3.58 8 8 8s8-3.58 8-8-3.58-8-8-8-8 3.58-8 8z" fill="#ea384c" fill-opacity=".06"/>
      <path d="M50 70c0-5.52 4.48-10 10-10s10 4.48 10 10-4.48 10-10 10-10-4.48-10-10zm2 0c0 4.42 3.58 8 8 8s8-3.58 8-8-8-16-8-8z" fill="#ea384c" fill-opacity=".06"/>
      
      <!-- Historical manuscript decoration elements -->
      <path d="M15 50 Q25 40, 35 50 Q45 60, 55 50 Q65 40, 75 50 Q85 60, 95 50" stroke="#ea384c" stroke-width="1" stroke-opacity=".04" fill="none"/>
      <path d="M50 20 Q60 30, 50 40 Q40 50, 50 60 Q60 70, 50 80" stroke="#ea384c" stroke-width="1" stroke-opacity=".04" fill="none"/>
    </pattern>
  </defs>
  <rect width="100%" height="100%" fill="url(#arabesque)"/>
</svg>
